<mxfile host="app.diagrams.net" modified="2024-07-09T10:45:22.839Z" agent="Mozilla/5.0 (Macintosh; Intel Mac OS X 10_15_7) AppleWebKit/537.36 (KHTML, like Gecko) Chrome/126.0.0.0 Safari/537.36" etag="yn2Hg1LDcNnpk7H8DLjs" version="24.2.1" type="github">
  <diagram name="Page-1" id="wy4rP-lxoCLpRuZFQheq">
    <mxGraphModel dx="873" dy="554" grid="1" gridSize="10" guides="1" tooltips="1" connect="1" arrows="1" fold="1" page="1" pageScale="1" pageWidth="850" pageHeight="1100" math="0" shadow="0">
      <root>
        <mxCell id="0" />
        <mxCell id="1" parent="0" />
        <mxCell id="cRPRO_LTw0VTsCykt1O3-1" value="Pool" style="swimlane;html=1;childLayout=stackLayout;horizontal=1;startSize=20;horizontalStack=0;rounded=0;shadow=0;labelBackgroundColor=none;strokeWidth=1;fontFamily=Verdana;fontSize=8;align=center;" vertex="1" parent="1">
          <mxGeometry x="20" y="20" width="680" height="470" as="geometry" />
        </mxCell>
        <mxCell id="cRPRO_LTw0VTsCykt1O3-2" value="Lane 1" style="swimlane;html=1;startSize=20;horizontal=0;" vertex="1" parent="cRPRO_LTw0VTsCykt1O3-1">
          <mxGeometry y="20" width="680" height="150" as="geometry" />
        </mxCell>
        <mxCell id="cRPRO_LTw0VTsCykt1O3-3" style="edgeStyle=orthogonalEdgeStyle;rounded=0;html=1;labelBackgroundColor=none;startArrow=none;startFill=0;startSize=5;endArrow=classicThin;endFill=1;endSize=5;jettySize=auto;orthogonalLoop=1;strokeWidth=1;fontFamily=Verdana;fontSize=8" edge="1" parent="cRPRO_LTw0VTsCykt1O3-2" source="cRPRO_LTw0VTsCykt1O3-4" target="cRPRO_LTw0VTsCykt1O3-5">
          <mxGeometry relative="1" as="geometry" />
        </mxCell>
        <mxCell id="cRPRO_LTw0VTsCykt1O3-4" value="" style="ellipse;whiteSpace=wrap;html=1;rounded=0;shadow=0;labelBackgroundColor=none;strokeWidth=1;fontFamily=Verdana;fontSize=8;align=center;" vertex="1" parent="cRPRO_LTw0VTsCykt1O3-2">
          <mxGeometry x="60" y="60" width="30" height="30" as="geometry" />
        </mxCell>
        <mxCell id="cRPRO_LTw0VTsCykt1O3-5" value="" style="rounded=1;whiteSpace=wrap;html=1;shadow=0;labelBackgroundColor=none;strokeWidth=1;fontFamily=Verdana;fontSize=8;align=center;" vertex="1" parent="cRPRO_LTw0VTsCykt1O3-2">
          <mxGeometry x="120" y="56.49999999999997" width="70" height="37" as="geometry" />
        </mxCell>
        <mxCell id="cRPRO_LTw0VTsCykt1O3-6" style="edgeStyle=orthogonalEdgeStyle;rounded=0;html=1;labelBackgroundColor=none;startArrow=none;startFill=0;startSize=5;endArrow=classicThin;endFill=1;endSize=5;jettySize=auto;orthogonalLoop=1;strokeWidth=1;fontFamily=Verdana;fontSize=8" edge="1" parent="cRPRO_LTw0VTsCykt1O3-2" source="cRPRO_LTw0VTsCykt1O3-7" target="cRPRO_LTw0VTsCykt1O3-8">
          <mxGeometry relative="1" as="geometry" />
        </mxCell>
        <mxCell id="cRPRO_LTw0VTsCykt1O3-7" value="" style="rounded=1;whiteSpace=wrap;html=1;shadow=0;labelBackgroundColor=none;strokeWidth=1;fontFamily=Verdana;fontSize=8;align=center;" vertex="1" parent="cRPRO_LTw0VTsCykt1O3-2">
          <mxGeometry x="230" y="56.49999999999997" width="70" height="37" as="geometry" />
        </mxCell>
        <mxCell id="cRPRO_LTw0VTsCykt1O3-8" value="" style="ellipse;whiteSpace=wrap;html=1;rounded=0;shadow=0;labelBackgroundColor=none;strokeWidth=2;fontFamily=Verdana;fontSize=8;align=center;" vertex="1" parent="cRPRO_LTw0VTsCykt1O3-2">
          <mxGeometry x="330" y="60" width="30" height="30" as="geometry" />
        </mxCell>
        <mxCell id="cRPRO_LTw0VTsCykt1O3-9" style="edgeStyle=orthogonalEdgeStyle;rounded=0;html=1;entryX=0;entryY=0.5;labelBackgroundColor=none;startArrow=none;startFill=0;startSize=5;endArrow=classicThin;endFill=1;endSize=5;jettySize=auto;orthogonalLoop=1;strokeWidth=1;fontFamily=Verdana;fontSize=8" edge="1" parent="cRPRO_LTw0VTsCykt1O3-2" source="cRPRO_LTw0VTsCykt1O3-10" target="cRPRO_LTw0VTsCykt1O3-12">
          <mxGeometry relative="1" as="geometry" />
        </mxCell>
        <mxCell id="cRPRO_LTw0VTsCykt1O3-10" value="" style="rounded=1;whiteSpace=wrap;html=1;shadow=0;labelBackgroundColor=none;strokeWidth=1;fontFamily=Verdana;fontSize=8;align=center;" vertex="1" parent="cRPRO_LTw0VTsCykt1O3-2">
          <mxGeometry x="420" y="56.49999999999997" width="70" height="37" as="geometry" />
        </mxCell>
        <mxCell id="cRPRO_LTw0VTsCykt1O3-11" style="edgeStyle=orthogonalEdgeStyle;rounded=0;html=1;labelBackgroundColor=none;startArrow=none;startFill=0;startSize=5;endArrow=classicThin;endFill=1;endSize=5;jettySize=auto;orthogonalLoop=1;strokeWidth=1;fontFamily=Verdana;fontSize=8" edge="1" parent="cRPRO_LTw0VTsCykt1O3-2" source="cRPRO_LTw0VTsCykt1O3-12" target="cRPRO_LTw0VTsCykt1O3-13">
          <mxGeometry relative="1" as="geometry" />
        </mxCell>
        <mxCell id="cRPRO_LTw0VTsCykt1O3-12" value="" style="shape=mxgraph.bpmn.shape;html=1;verticalLabelPosition=bottom;labelBackgroundColor=#ffffff;verticalAlign=top;perimeter=rhombusPerimeter;background=gateway;outline=none;symbol=parallelGw;rounded=1;shadow=0;strokeWidth=1;fontFamily=Verdana;fontSize=8;align=center;" vertex="1" parent="cRPRO_LTw0VTsCykt1O3-2">
          <mxGeometry x="550" y="60" width="30" height="30" as="geometry" />
        </mxCell>
        <mxCell id="cRPRO_LTw0VTsCykt1O3-13" value="" style="ellipse;whiteSpace=wrap;html=1;rounded=0;shadow=0;labelBackgroundColor=none;strokeWidth=2;fontFamily=Verdana;fontSize=8;align=center;" vertex="1" parent="cRPRO_LTw0VTsCykt1O3-2">
          <mxGeometry x="610" y="60" width="30" height="30" as="geometry" />
        </mxCell>
        <mxCell id="cRPRO_LTw0VTsCykt1O3-14" value="Lane 2" style="swimlane;html=1;startSize=20;horizontal=0;" vertex="1" parent="cRPRO_LTw0VTsCykt1O3-1">
          <mxGeometry y="170" width="680" height="150" as="geometry" />
        </mxCell>
        <mxCell id="cRPRO_LTw0VTsCykt1O3-15" style="edgeStyle=orthogonalEdgeStyle;rounded=0;html=1;labelBackgroundColor=none;startArrow=none;startFill=0;startSize=5;endArrow=classicThin;endFill=1;endSize=5;jettySize=auto;orthogonalLoop=1;strokeWidth=1;fontFamily=Verdana;fontSize=8" edge="1" parent="cRPRO_LTw0VTsCykt1O3-14" source="cRPRO_LTw0VTsCykt1O3-16" target="cRPRO_LTw0VTsCykt1O3-17">
          <mxGeometry relative="1" as="geometry" />
        </mxCell>
        <mxCell id="cRPRO_LTw0VTsCykt1O3-16" value="" style="rounded=1;whiteSpace=wrap;html=1;shadow=0;labelBackgroundColor=none;strokeWidth=1;fontFamily=Verdana;fontSize=8;align=center;" vertex="1" parent="cRPRO_LTw0VTsCykt1O3-14">
          <mxGeometry x="120" y="49.99999999999996" width="70" height="37" as="geometry" />
        </mxCell>
        <mxCell id="cRPRO_LTw0VTsCykt1O3-17" value="" style="strokeWidth=1;html=1;shape=mxgraph.flowchart.decision;whiteSpace=wrap;rounded=1;shadow=0;labelBackgroundColor=none;fontFamily=Verdana;fontSize=8;align=center;" vertex="1" parent="cRPRO_LTw0VTsCykt1O3-14">
          <mxGeometry x="250" y="53.499999999999915" width="30" height="30" as="geometry" />
        </mxCell>
        <mxCell id="cRPRO_LTw0VTsCykt1O3-18" value="Lane 3" style="swimlane;html=1;startSize=20;horizontal=0;" vertex="1" parent="cRPRO_LTw0VTsCykt1O3-1">
          <mxGeometry y="320" width="680" height="150" as="geometry" />
        </mxCell>
        <mxCell id="cRPRO_LTw0VTsCykt1O3-19" style="edgeStyle=orthogonalEdgeStyle;rounded=0;html=1;labelBackgroundColor=none;startArrow=none;startFill=0;startSize=5;endArrow=classicThin;endFill=1;endSize=5;jettySize=auto;orthogonalLoop=1;strokeWidth=1;fontFamily=Verdana;fontSize=8;" edge="1" parent="cRPRO_LTw0VTsCykt1O3-18" source="cRPRO_LTw0VTsCykt1O3-20" target="cRPRO_LTw0VTsCykt1O3-22">
          <mxGeometry relative="1" as="geometry" />
        </mxCell>
        <mxCell id="cRPRO_LTw0VTsCykt1O3-20" value="" style="rounded=1;whiteSpace=wrap;html=1;shadow=0;labelBackgroundColor=none;strokeWidth=1;fontFamily=Verdana;fontSize=8;align=center;" vertex="1" parent="cRPRO_LTw0VTsCykt1O3-18">
          <mxGeometry x="230" y="57.00000000000003" width="70" height="37" as="geometry" />
        </mxCell>
        <mxCell id="cRPRO_LTw0VTsCykt1O3-21" value="Yes" style="edgeStyle=orthogonalEdgeStyle;rounded=0;html=1;entryX=0;entryY=0.5;labelBackgroundColor=none;startArrow=none;startFill=0;startSize=5;endArrow=classicThin;endFill=1;endSize=5;jettySize=auto;orthogonalLoop=1;strokeWidth=1;fontFamily=Verdana;fontSize=8" edge="1" parent="cRPRO_LTw0VTsCykt1O3-18" source="cRPRO_LTw0VTsCykt1O3-22" target="cRPRO_LTw0VTsCykt1O3-24">
          <mxGeometry x="-0.5006" y="6" relative="1" as="geometry">
            <mxPoint as="offset" />
          </mxGeometry>
        </mxCell>
        <mxCell id="cRPRO_LTw0VTsCykt1O3-22" value="" style="strokeWidth=1;html=1;shape=mxgraph.flowchart.decision;whiteSpace=wrap;rounded=1;shadow=0;labelBackgroundColor=none;fontFamily=Verdana;fontSize=8;align=center;" vertex="1" parent="cRPRO_LTw0VTsCykt1O3-18">
          <mxGeometry x="330" y="60.500000000000064" width="30" height="30" as="geometry" />
        </mxCell>
        <mxCell id="cRPRO_LTw0VTsCykt1O3-23" style="edgeStyle=orthogonalEdgeStyle;rounded=0;html=1;labelBackgroundColor=none;startArrow=none;startFill=0;startSize=5;endArrow=classicThin;endFill=1;endSize=5;jettySize=auto;orthogonalLoop=1;strokeColor=#000000;strokeWidth=1;fontFamily=Verdana;fontSize=8;fontColor=#000000;" edge="1" parent="cRPRO_LTw0VTsCykt1O3-18" source="cRPRO_LTw0VTsCykt1O3-24" target="cRPRO_LTw0VTsCykt1O3-25">
          <mxGeometry relative="1" as="geometry" />
        </mxCell>
        <mxCell id="cRPRO_LTw0VTsCykt1O3-24" value="" style="shape=mxgraph.bpmn.shape;html=1;verticalLabelPosition=bottom;labelBackgroundColor=#ffffff;verticalAlign=top;perimeter=rhombusPerimeter;background=gateway;outline=none;symbol=parallelGw;rounded=1;shadow=0;strokeWidth=1;fontFamily=Verdana;fontSize=8;align=center;" vertex="1" parent="cRPRO_LTw0VTsCykt1O3-18">
          <mxGeometry x="440" y="60.500000000000064" width="30" height="30" as="geometry" />
        </mxCell>
        <mxCell id="cRPRO_LTw0VTsCykt1O3-25" value="" style="rounded=1;whiteSpace=wrap;html=1;shadow=0;labelBackgroundColor=none;strokeWidth=1;fontFamily=Verdana;fontSize=8;align=center;" vertex="1" parent="cRPRO_LTw0VTsCykt1O3-18">
          <mxGeometry x="530" y="57" width="70" height="37" as="geometry" />
        </mxCell>
        <mxCell id="cRPRO_LTw0VTsCykt1O3-26" style="edgeStyle=orthogonalEdgeStyle;rounded=0;html=1;labelBackgroundColor=none;startArrow=none;startFill=0;startSize=5;endArrow=classicThin;endFill=1;endSize=5;jettySize=auto;orthogonalLoop=1;strokeWidth=1;fontFamily=Verdana;fontSize=8" edge="1" parent="cRPRO_LTw0VTsCykt1O3-1" source="cRPRO_LTw0VTsCykt1O3-5" target="cRPRO_LTw0VTsCykt1O3-16">
          <mxGeometry relative="1" as="geometry" />
        </mxCell>
        <mxCell id="cRPRO_LTw0VTsCykt1O3-27" value="No" style="edgeStyle=orthogonalEdgeStyle;rounded=0;html=1;labelBackgroundColor=none;startArrow=none;startFill=0;startSize=5;endArrow=classicThin;endFill=1;endSize=5;jettySize=auto;orthogonalLoop=1;strokeWidth=1;fontFamily=Verdana;fontSize=8" edge="1" parent="cRPRO_LTw0VTsCykt1O3-1" source="cRPRO_LTw0VTsCykt1O3-17" target="cRPRO_LTw0VTsCykt1O3-7">
          <mxGeometry x="-0.9364" y="-15" relative="1" as="geometry">
            <mxPoint as="offset" />
          </mxGeometry>
        </mxCell>
        <mxCell id="cRPRO_LTw0VTsCykt1O3-28" value="Yes" style="edgeStyle=orthogonalEdgeStyle;rounded=0;html=1;labelBackgroundColor=none;startArrow=none;startFill=0;startSize=5;endArrow=classicThin;endFill=1;endSize=5;jettySize=auto;orthogonalLoop=1;strokeWidth=1;fontFamily=Verdana;fontSize=8" edge="1" parent="cRPRO_LTw0VTsCykt1O3-1" source="cRPRO_LTw0VTsCykt1O3-17" target="cRPRO_LTw0VTsCykt1O3-20">
          <mxGeometry x="-0.8947" y="15" relative="1" as="geometry">
            <mxPoint as="offset" />
          </mxGeometry>
        </mxCell>
        <mxCell id="cRPRO_LTw0VTsCykt1O3-29" style="edgeStyle=orthogonalEdgeStyle;rounded=0;html=1;entryX=0.5;entryY=1;labelBackgroundColor=none;startArrow=none;startFill=0;startSize=5;endArrow=classicThin;endFill=1;endSize=5;jettySize=auto;orthogonalLoop=1;strokeWidth=1;fontFamily=Verdana;fontSize=8" edge="1" parent="cRPRO_LTw0VTsCykt1O3-1" source="cRPRO_LTw0VTsCykt1O3-25" target="cRPRO_LTw0VTsCykt1O3-12">
          <mxGeometry relative="1" as="geometry" />
        </mxCell>
        <mxCell id="cRPRO_LTw0VTsCykt1O3-30" value="No" style="edgeStyle=orthogonalEdgeStyle;rounded=0;html=1;labelBackgroundColor=none;startArrow=none;startFill=0;startSize=5;endArrow=classicThin;endFill=1;endSize=5;jettySize=auto;orthogonalLoop=1;strokeWidth=1;fontFamily=Verdana;fontSize=8" edge="1" parent="cRPRO_LTw0VTsCykt1O3-1" source="cRPRO_LTw0VTsCykt1O3-22" target="cRPRO_LTw0VTsCykt1O3-16">
          <mxGeometry x="-0.9529" y="15" relative="1" as="geometry">
            <Array as="points">
              <mxPoint x="345" y="440" />
              <mxPoint x="155" y="440" />
            </Array>
            <mxPoint as="offset" />
          </mxGeometry>
        </mxCell>
        <mxCell id="cRPRO_LTw0VTsCykt1O3-31" style="edgeStyle=orthogonalEdgeStyle;rounded=0;html=1;labelBackgroundColor=none;startArrow=none;startFill=0;startSize=5;endArrow=classicThin;endFill=1;endSize=5;jettySize=auto;orthogonalLoop=1;strokeWidth=1;fontFamily=Verdana;fontSize=8" edge="1" parent="cRPRO_LTw0VTsCykt1O3-1" source="cRPRO_LTw0VTsCykt1O3-24" target="cRPRO_LTw0VTsCykt1O3-10">
          <mxGeometry relative="1" as="geometry" />
        </mxCell>
      </root>
    </mxGraphModel>
  </diagram>
</mxfile>
